<svg xmlns="http://www.w3.org/2000/svg" viewBox="0 0 120 120" role="img" aria-labelledby="title">
  <title id="title">Mike testimonial portrait</title>
  <rect width="120" height="120" rx="60" fill="#eef1f4"/>
  <circle cx="60" cy="45" r="24" fill="#b87955"/>
  <path d="M36 45c5-22 19-31 34-27 13 3 20 13 15 32-13-9-31-10-49-5z" fill="#31363b"/>
  <path d="M28 112c6-27 22-42 32-42s26 15 32 42z" fill="#1f2933"/>
  <path d="M46 70c8 8 20 8 28 0v16c-8 8-20 8-28 0z" fill="#9c6041"/>
  <path d="M48 55c6 6 18 6 24 0" fill="none" stroke="#4b281b" stroke-width="4" stroke-linecap="round"/>
</svg>
